<?xml version="1.0" standalone="no"?>
<!DOCTYPE svg PUBLIC "-//W3C//DTD SVG 20010904//EN"
 "http://www.w3.org/TR/2001/REC-SVG-20010904/DTD/svg10.dtd">
<svg version="1.0" xmlns="http://www.w3.org/2000/svg"
 width="300.000000pt" height="299.000000pt" viewBox="0 0 300.000000 299.000000"
 preserveAspectRatio="xMidYMid meet">
<metadata>
Created by potrace 1.10, written by Peter Selinger 2001-2011
</metadata>
<g transform="translate(0.000000,299.000000) scale(0.100000,-0.100000)"
fill="#000000" stroke="none">
<path d="M1522 2198 c-7 -7 -12 -22 -12 -34 0 -51 67 -60 85 -11 8 24 6 31
-10 43 -23 17 -47 18 -63 2z"/>
<path d="M1104 2065 c-11 -27 6 -65 32 -75 14 -6 151 -10 310 -10 l284 0 0
-45 0 -46 -292 4 c-161 2 -302 5 -313 8 -27 5 -33 -36 -9 -62 14 -16 31 -19
110 -19 l92 0 0 -181 1 -181 -72 5 c-40 3 -86 8 -103 12 -66 15 -43 -56 24
-75 77 -21 134 -12 324 49 272 89 322 101 414 101 125 0 215 -40 274 -122 36
-49 80 -181 85 -256 5 -63 10 -72 39 -72 26 0 48 45 68 142 25 120 -26 271
-125 370 -90 90 -218 134 -364 125 l-83 -5 0 44 0 44 103 0 c56 0 108 4 115 8
7 5 15 25 19 45 4 30 2 37 -10 37 -9 0 -19 -4 -22 -10 -3 -6 -50 -10 -106 -10
l-99 0 0 45 0 45 98 0 c108 1 128 9 138 57 7 37 -10 51 -35 29 -15 -14 -66
-16 -433 -16 -357 0 -417 2 -428 15 -16 19 -29 19 -36 0z m686 -59 c0 -22 -19
-30 -35 -16 -22 18 -18 30 10 30 15 0 25 -6 25 -14z m8 -153 c-5 -29 -35 -40
-55 -21 -16 16 -16 19 1 37 15 16 23 18 38 10 11 -6 18 -17 16 -26z m-418 -11
c0 -19 -23 -32 -37 -21 -20 17 -15 29 12 29 14 0 25 -4 25 -8z m198 -4 c-7
-19 -35 -21 -41 -3 -5 11 0 15 19 15 16 0 24 -5 22 -12z m-58 -164 l0 -145
-36 -15 c-19 -8 -48 -17 -65 -21 l-29 -5 0 166 0 166 65 0 65 0 0 -146z m210
60 c0 -77 2 -85 18 -80 9 3 50 10 90 16 257 36 449 -103 486 -355 4 -22 2 -47
-3 -55 -11 -17 -12 -15 -31 60 -65 250 -278 345 -587 262 l-113 -30 0 134 0
134 70 0 70 0 0 -86z m598 -515 c1 -8 -4 -23 -12 -34 -15 -19 -15 -18 -16 18
0 27 4 37 13 35 6 -3 13 -11 15 -19z"/>
<path d="M927 2042 c-40 -44 -49 -149 -18 -217 41 -90 156 -155 276 -155 l65
0 0 30 0 30 -67 0 c-102 1 -183 43 -220 115 -22 41 -22 125 0 158 21 33 21 34
-2 46 -14 8 -22 6 -34 -7z"/>
<path d="M2171 1986 c-12 -14 -5 -26 16 -26 15 0 18 26 4 34 -5 3 -14 0 -20
-8z"/>
<path d="M844 1786 c-8 -22 30 -86 78 -133 64 -62 138 -93 234 -96 78 -2 79
-2 79 23 0 24 -3 25 -80 31 -117 9 -201 56 -260 147 -29 44 -42 51 -51 28z"/>
<path d="M736 1722 c-3 -5 -4 -61 -3 -124 4 -153 26 -199 146 -318 92 -91 139
-119 241 -146 118 -31 183 -24 385 43 l180 59 -3 30 c-2 16 -6 31 -8 33 -1 2
-77 -22 -167 -53 -191 -66 -253 -75 -352 -52 -116 28 -171 59 -254 144 -85 86
-133 171 -129 226 2 36 18 40 18 5 0 -23 90 -148 146 -201 76 -73 250 -127
357 -113 27 4 135 35 241 70 l191 63 5 -354 c5 -372 7 -387 49 -365 21 12 21
16 21 371 0 276 3 361 13 367 6 4 59 8 117 8 87 0 105 3 108 16 1 8 -7 24 -18
34 -18 16 -35 19 -98 18 -91 -2 -187 -25 -412 -100 -91 -30 -192 -57 -226 -60
-79 -7 -192 18 -260 57 -59 33 -130 111 -168 185 -15 28 -33 55 -42 61 -8 7
-18 31 -22 55 -6 34 -12 45 -29 47 -12 2 -24 -1 -27 -6z"/>
<path d="M1857 1333 c-4 -3 -7 -19 -7 -35 0 -28 1 -28 63 -28 72 0 128 -23
171 -69 39 -41 47 -127 18 -181 -20 -39 -89 -80 -133 -80 -39 0 -53 -42 -20
-59 30 -17 117 11 158 50 83 80 101 181 49 276 -32 59 -82 98 -152 119 -49 15
-136 19 -147 7z"/>
<path d="M1856 1134 c-14 -37 -7 -44 32 -38 21 3 57 1 81 -6 46 -12 66 -4 56
22 -9 24 -51 38 -109 38 -40 0 -55 -4 -60 -16z"/>
<path d="M1490 1059 c-216 -75 -288 -95 -365 -104 -109 -12 -277 30 -291 72
-17 54 -28 73 -39 73 -23 0 -27 -33 -7 -54 100 -107 106 -111 231 -132 117
-19 186 -7 426 72 110 37 206 68 213 70 9 3 19 64 9 64 -1 0 -81 -27 -177 -61z"/>
<path d="M1010 1030 c20 -13 63 -13 55 0 -3 6 -21 10 -38 10 -24 0 -28 -3 -17
-10z"/>
<path d="M1595 973 c-27 -8 -105 -35 -173 -59 -176 -63 -238 -76 -369 -75 -62
0 -113 -2 -113 -5 0 -13 90 -43 145 -49 72 -8 157 9 305 60 58 20 141 48 185
62 44 14 81 26 82 27 1 0 4 13 8 29 8 32 3 33 -70 10z"/>
<path d="M1520 720 c-12 -23 -7 -35 20 -50 13 -7 24 -5 40 8 19 16 21 22 11
40 -15 28 -56 29 -71 2z"/>
</g>
</svg>
